<?xml version="1.0" encoding="UTF-8" standalone="no" ?>
<!DOCTYPE svg PUBLIC "-//W3C//DTD SVG 1.1//EN" "http://www.w3.org/Graphics/SVG/1.1/DTD/svg11.dtd">
<svg xmlns="http://www.w3.org/2000/svg" xmlns:xlink="http://www.w3.org/1999/xlink" version="1.1" width="500" height="500" viewBox="0 0 500 500" xml:space="preserve">
<desc>Created with Fabric.js 4.6.0</desc>
<defs>
</defs>
<g transform="matrix(0 -1.39 1.39 0 250 250)" id="sdUcwcUh91lo8h7X7cyT6"  >
<g style="" vector-effect="non-scaling-stroke"   >
		<g transform="matrix(1 0 0 1 0 0)" id="lZieXGG3dXSJNgirniQUD"  >
<path style="stroke: rgb(255,255,255); stroke-width: 0; stroke-dasharray: none; stroke-linecap: butt; stroke-dashoffset: 0; stroke-linejoin: miter; stroke-miterlimit: 4; fill: rgb(103,58,183); fill-opacity: 0.85; fill-rule: nonzero; opacity: 1;" vector-effect="non-scaling-stroke"  transform=" translate(-176, -147.84)" d="M 0 61.91454 C 0 27.720080000000003 27.72008 0 61.91454 0 L 164.11809 0 C 162.01067 17.52089 160.84 36.90089 160.84 57.28 C 160.84 135.595 178.12832 199.155 199.43 199.155 C 220.73168 199.155 238.02 135.595 238.02 57.28 C 238.02 36.90088 236.84933 17.52089 234.74191000000002 0 L 290.08546 0 C 324.27992 0 352 27.72008 352 61.91454 L 352 233.76546000000002 C 352 267.95992 324.27992 295.68 290.08546 295.68 L 111.78601 295.68 C 118.86305 269.95645 123.25 234.25029 123.25 194.8 C 123.25 116.48500000000001 105.96168 52.92500000000001 84.66 52.92500000000001 C 63.35831999999999 52.92500000000001 46.06999999999999 116.48500000000001 46.06999999999999 194.8 C 46.06999999999999 234.17081000000002 50.439299999999996 269.81258 57.49126 295.52443 C 25.361199999999997 293.25643 0 266.47266 0 233.76546 z" stroke-linecap="round" />
</g>
		<g transform="matrix(0.91 0 0 0.91 108.68 77.55)" id="rU8EWLJVmtyKEDGPaZ_j-"  >
<path style="stroke: rgb(255,255,255); stroke-width: 11; stroke-dasharray: none; stroke-linecap: butt; stroke-dashoffset: 0; stroke-linejoin: miter; stroke-miterlimit: 4; fill: rgb(255,215,64); fill-rule: nonzero; opacity: 1;" vector-effect="non-scaling-stroke"  transform=" translate(0, 0)" d="M 0 -45 C 24.84 -45 45 -24.84 45 0 C 45 24.84 24.84 45 0 45 C -24.84 45 -45 24.84 -45 0 C -45 -24.84 -24.84 -45 0 -45 z" stroke-linecap="round" />
</g>
</g>
</g>
</svg>